<?xml version="1.0" encoding="UTF-8" standalone="no"?>
<svg
   xmlns:dc="http://purl.org/dc/elements/1.1/"
   xmlns:cc="http://creativecommons.org/ns#"
   xmlns:rdf="http://www.w3.org/1999/02/22-rdf-syntax-ns#"
   xmlns:svg="http://www.w3.org/2000/svg"
   xmlns="http://www.w3.org/2000/svg"
   xmlns:sodipodi="http://sodipodi.sourceforge.net/DTD/sodipodi-0.dtd"
   xmlns:inkscape="http://www.inkscape.org/namespaces/inkscape"
   id="Capa_1"
   enable-background="new 0 0 512 512"
   height="62.380901"
   viewBox="0 0 49.980022 62.380902"
   width="49.980022"
   version="1.1"
   sodipodi:docname="accountsicon.svg"
   inkscape:version="0.92.3 (2405546, 2018-03-11)">
  <metadata
     id="metadata3666">
    <rdf:RDF>
      <cc:Work
         rdf:about="">
        <dc:format>image/svg+xml</dc:format>
        <dc:type
           rdf:resource="http://purl.org/dc/dcmitype/StillImage" />
        <dc:title></dc:title>
      </cc:Work>
    </rdf:RDF>
  </metadata>
  <defs
     id="defs3664" />
  <sodipodi:namedview
     pagecolor="#ffffff"
     bordercolor="#666666"
     borderopacity="1"
     objecttolerance="10"
     gridtolerance="10"
     guidetolerance="10"
     inkscape:pageopacity="0"
     inkscape:pageshadow="2"
     inkscape:window-width="1920"
     inkscape:window-height="1013"
     id="namedview3662"
     showgrid="false"
     inkscape:zoom="5.2149127"
     inkscape:cx="-35.710332"
     inkscape:cy="30.284585"
     inkscape:window-x="1911"
     inkscape:window-y="-9"
     inkscape:window-maximized="1"
     inkscape:current-layer="Capa_1" />
  <path
     style="opacity:1;fill:#3cb371;fill-opacity:1;stroke:#3cb371;stroke-width:2.63671446;stroke-linecap:round;stroke-linejoin:miter;stroke-miterlimit:4;stroke-dasharray:none;stroke-dashoffset:0;stroke-opacity:1;paint-order:markers fill stroke"
     id="path4812"
     sodipodi:type="arc"
     sodipodi:cx="24.990011"
     sodipodi:cy="-58.22805"
     sodipodi:rx="23.67164"
     sodipodi:ry="23.166286"
     sodipodi:start="6.2628244"
     sodipodi:end="3.1603308"
     d="M 48.656745,-58.699704 A 23.67164,23.166286 0 0 1 36.975736,-38.250876 23.67164,23.166286 0 0 1 13.037428,-38.231867 23.67164,23.166286 0 0 1 1.3225265,-58.662118"
     transform="scale(1,-1)"
     sodipodi:open="true" />
  <path
     style="fill:#3cb371;fill-opacity:1;stroke:none;stroke-width:1.240839;stroke-miterlimit:4;stroke-dasharray:none;stroke-opacity:1"
     d="M 17.203009,7.3043493e-4 C 12.882322,0.04551044 9.0763646,2.4667767 8.4581082,5.8736621 l -0.935625,5.1563139 h -5.633565 c -0.91617299,0 -1.66086799,0.565106 -1.66086799,1.260012 0,1.21727 0.638862,2.319208 1.65839599,3.144094 H 48.096061 c 1.01999,-0.824853 1.655912,-1.92686 1.655912,-3.144094 0,-0.694906 -0.747331,-1.260012 -1.663339,-1.260012 H 42.45754 L 41.521914,5.8736621 C 40.909691,2.5003085 37.137292,0.04885144 32.791866,7.3043493e-4 32.171089,-0.00616956 31.537449,0.03570044 30.900805,0.13124044 c -3.922943,0.589193 -7.900799,0.589193 -11.824059,0 -0.630548,-0.09466 -1.256495,-0.136906 -1.873737,-0.13051000507 z"
     id="path5428"
     inkscape:connector-curvature="0" />
  <path
     style="opacity:1;fill:#3cb371;fill-opacity:1;stroke:none;stroke-width:0.86978924;stroke-linecap:round;stroke-linejoin:miter;stroke-miterlimit:4;stroke-dasharray:none;stroke-dashoffset:0;stroke-opacity:1;paint-order:markers fill stroke"
     id="path5433"
     sodipodi:type="arc"
     sodipodi:cx="24.990011"
     sodipodi:cy="17.095278"
     sodipodi:rx="16.909206"
     sodipodi:ry="15.665305"
     sodipodi:start="6.2117057"
     sodipodi:end="3.2137563"
     d="M 41.856039,15.976481 A 16.909206,15.665305 0 0 1 33.7878,30.473231 16.909206,15.665305 0 0 1 16.182346,30.467652 16.909206,15.665305 0 0 1 8.1248138,15.965793"
     sodipodi:open="true" />
  <rect
     style="opacity:1;fill:#3cb371;fill-opacity:1;stroke:#ffffff;stroke-width:0.64391971;stroke-linecap:round;stroke-linejoin:miter;stroke-miterlimit:4;stroke-dasharray:none;stroke-dashoffset:0;stroke-opacity:1;paint-order:markers fill stroke"
     id="rect8040"
     width="30.356081"
     height="21.263441"
     x="9.8119698"
     y="40.795502"
     ry="0">
     /&gt;
  </rect>
  <g
     id="g8054"
     transform="translate(-0.82652349)">
    <rect
       transform="scale(1,-1)"
       style="opacity:1;fill:#3cb371;fill-opacity:1;stroke:#ffffff;stroke-width:0.5;stroke-linecap:round;stroke-linejoin:miter;stroke-miterlimit:4;stroke-dasharray:none;stroke-dashoffset:0;stroke-opacity:1;paint-order:markers fill stroke"
       id="rect8042"
       width="2.2194726"
       height="7.700531"
       x="16.652973"
       y="-42.399319"
       ry="0">
       /&gt;
    </rect>
    <rect
       transform="scale(1,-1)"
       ry="0"
       y="-42.399319"
       x="32.760624"
       height="7.700531"
       width="2.2194726"
       id="rect8046"
       style="opacity:1;fill:#3cb371;fill-opacity:1;stroke:#ffffff;stroke-width:0.5;stroke-linecap:round;stroke-linejoin:miter;stroke-miterlimit:4;stroke-dasharray:none;stroke-dashoffset:0;stroke-opacity:1;paint-order:markers fill stroke">
       /&gt;
    </rect>
  </g>
</svg>
