<?xml version="1.0" encoding="UTF-8" standalone="no"?>
<svg
   xmlns:dc="http://purl.org/dc/elements/1.1/"
   xmlns:cc="http://creativecommons.org/ns#"
   xmlns:rdf="http://www.w3.org/1999/02/22-rdf-syntax-ns#"
   xmlns:svg="http://www.w3.org/2000/svg"
   xmlns="http://www.w3.org/2000/svg"
   xmlns:sodipodi="http://sodipodi.sourceforge.net/DTD/sodipodi-0.dtd"
   xmlns:inkscape="http://www.inkscape.org/namespaces/inkscape"
   height="87.667023"
   viewBox="0 -23 107.4424 87.667023"
   width="107.4424"
   version="1.1"
   id="svg36"
   sodipodi:docname="cart.svg"
   inkscape:version="0.92.3 (2405546, 2018-03-11)">
  <metadata
     id="metadata42">
    <rdf:RDF>
      <cc:Work
         rdf:about="">
        <dc:format>image/svg+xml</dc:format>
        <dc:type
           rdf:resource="http://purl.org/dc/dcmitype/StillImage" />
        <dc:title></dc:title>
      </cc:Work>
    </rdf:RDF>
  </metadata>
  <defs
     id="defs40" />
  <sodipodi:namedview
     pagecolor="#ffffff"
     bordercolor="#666666"
     borderopacity="1"
     objecttolerance="10"
     gridtolerance="10"
     guidetolerance="10"
     inkscape:pageopacity="0"
     inkscape:pageshadow="2"
     inkscape:window-width="1920"
     inkscape:window-height="1013"
     id="namedview38"
     showgrid="false"
     units="px"
     inkscape:zoom="5.53125"
     inkscape:cx="67.341789"
     inkscape:cy="70.694326"
     inkscape:window-x="1911"
     inkscape:window-y="-9"
     inkscape:window-maximized="1"
     inkscape:current-layer="svg36" />
  <g
     id="g1143">
    <g
       transform="translate(1.018411)"
       id="g1081">
      <path
         d="m 34.292478,56.229175 c 0,4.660374 -3.777472,8.437846 -8.437111,8.437846 -4.65964,0 -8.437111,-3.777472 -8.437111,-8.437846 0,-4.659639 3.777471,-8.437111 8.437111,-8.437111 4.659639,0 8.437111,3.777472 8.437111,8.437111 z m 0,0"
         id="path14"
         inkscape:connector-curvature="0"
         style="fill:#3cb371;fill-opacity:1;stroke-width:0.18788278" />
      <path
         d="m 29.113224,56.229175 c 0,1.799566 -1.458291,3.257859 -3.257857,3.257859 -1.799564,0 -3.257857,-1.458293 -3.257857,-3.257859 0,-1.798831 1.458293,-3.257857 3.257857,-3.257857 1.799566,0 3.257857,1.459026 3.257857,3.257857 z m 0,0"
         id="path16"
         inkscape:connector-curvature="0"
         style="fill:#3cb371;fill-opacity:1;stroke:#ffffff;stroke-width:0.18788278;stroke-opacity:1" />
      <path
         d="m 87.987321,56.229175 c 0,4.660374 -3.777471,8.437846 -8.437111,8.437846 -4.659639,0 -8.437111,-3.777472 -8.437111,-8.437846 0,-4.659639 3.777472,-8.437111 8.437111,-8.437111 4.65964,0 8.437111,3.777472 8.437111,8.437111 z m 0,0"
         id="path18"
         inkscape:connector-curvature="0"
         style="fill:#3cb371;fill-opacity:1;stroke-width:0.18788278" />
      <path
         d="m 82.808069,56.229175 c 0,1.799566 -1.458293,3.257859 -3.257859,3.257859 -1.798831,0 -3.257857,-1.458293 -3.257857,-3.257859 0,-1.798831 1.459026,-3.257857 3.257857,-3.257857 1.799566,0 3.257859,1.459026 3.257859,3.257857 z m 0,0"
         id="path20"
         inkscape:connector-curvature="0"
         style="fill:#3cb371;fill-opacity:1;stroke:#ffffff;stroke-width:0.18788278;stroke-opacity:1" />
    </g>
    <g
       transform="translate(-3.277075,-22.768361)"
       id="g1063">
      <g
         id="g1452"
         transform="matrix(0.13451048,0,0,0.13451048,193.78991,125.40563)">
        <g
           transform="translate(-1549.3559,-778.33898)"
           id="g32"
           style="fill:#3cb371;fill-opacity:1">
          <path
             style="fill:#3cb371;fill-opacity:1"
             inkscape:connector-curvature="0"
             id="path30-5"
             d="m 405.001,117.311 c -2.882,0 -5.042,-0.856 -6.419,-2.543 -1.935,-2.372 -1.398,-5.331 -1.33,-5.66 l 4.836,-23.599 50.675,-37.543 c 1.418,-1.05 3.424,-0.011 3.383,1.753 -0.011,0.499 -1.581,50.046 -40.249,65.032 -4.387,1.699 -8.052,2.56 -10.896,2.56 z" />
        </g>
        <g
           transform="translate(-1557.3559,-778.33898)"
           id="g36"
           style="fill:#3cb371;fill-opacity:1">
          <path
             style="fill:#3cb371;fill-opacity:1"
             inkscape:connector-curvature="0"
             id="path34"
             d="m 392.011,117.311 c -2.844,0 -6.509,-0.862 -10.895,-2.562 -38.669,-14.986 -40.238,-64.533 -40.249,-65.032 -0.04,-1.764 1.966,-2.803 3.383,-1.753 l 50.675,37.543 4.836,23.6 c 0.067,0.329 0.604,3.288 -1.33,5.66 -1.377,1.688 -3.536,2.543 -6.418,2.543 -10e-4,0.001 -10e-4,0.001 -0.002,0.001 z" />
        </g>
        <path
           style="fill:#3cb371;fill-opacity:1"
           inkscape:connector-curvature="0"
           id="path38"
           d="m -1152.6809,-769.26398 c -0.8,-1.856 -3.538,-1.856 -4.338,0 -4.623,10.726 -15.028,37.271 -15.028,58.901 0,27.807 17.197,44.901 17.197,44.901 0,0 17.197,-17.093 17.197,-44.901 0,-21.631 -10.405,-48.176 -15.028,-58.901 z" />
        <path
           style="fill:#3cb371;fill-opacity:1"
           inkscape:connector-curvature="0"
           id="path40"
           d="m -1128.6999,-612.71598 h -52.299 l -16.443,-45.821 c -0.841,-2.343 0.896,-4.81 3.384,-4.81 h 78.417 c 2.489,0 4.225,2.468 3.384,4.81 z" />
      </g>
      <g
         id="g1417"
         transform="matrix(0.05227129,0,0,0.05227129,18.802689,36.179806)">
        <path
           id="path1180"
           d="m 981.94622,8.73612 a 7.879,7.879 0 0 1 -2.381,-5.62 v -46.27 h -169 v 46.73 a 8.015,8.015 0 0 1 -2.36,5.62 c -0.009,0.01 -0.019,0.02 -0.029,0.02 a 60.838,60.838 0 0 0 -17.871,43.4 c 0.15,33.73 28.18,60.73 61.91,60.73 h 87.09 a 60.993,60.993 0 0 0 42.641,-104.61 z"
           inkscape:connector-curvature="0"
           style="fill:#3cb371;fill-opacity:1" />
        <path
           id="path1182"
           d="m 981.94522,8.73612 a 7.878,7.878 0 0 1 -2.38,-5.62 v -46.27 h -40 v 16.27 a 7.878,7.878 0 0 0 2.38,5.62 61,61 0 0 1 -42.64,104.61 h -87.089 a 62.383,62.383 0 0 1 -14.257,-1.662 62.25,62.25 0 0 0 54.257,31.662 h 87.089 a 60.992,60.992 0 0 0 42.64,-104.61 z"
           inkscape:connector-curvature="0"
           style="fill:#3cb371;fill-opacity:1" />
        <path
           id="path1184"
           d="m 1006.6152,-242.26388 -26.44798,-44.81 -15.3,-25.91 -0.01,-0.01 c 7.93,-4.19 12.67,-13.87 12.67,-28.13 0,-1.84 -0.08,-3.75 -0.24,-5.74 -2.6,-32.02 16.31,-44.38 42.64998,-28.76 28.87,17.12 55.34,61.31 58.15,95.96 l 9.75,120.28 c 1.34,16.58 -3.08,27.89 -11.31,32.77 -0.4,0.24 -0.81,0.46 -1.23,0.67 z"
           inkscape:connector-curvature="0"
           style="fill:#3cb371;fill-opacity:1" />
        <path
           id="path1186"
           d="m 1006.6152,-242.26388 68.68,116.32 c -8.19,4.05 -19.73,2.24 -32.96,-6.45 l -96.24998,-63.14 -8.21,-5.39 c -27.81,-18.24 -52.53,-59.91 -55.22,-93.06 -2.69,-33.15 17.68,-45.24 45.49,-27 l 2.62,1.72 c 13.72,9 25.7,10.73 34.09,6.27 l 0.01,0.01 15.3,25.91 z"
           inkscape:connector-curvature="0"
           style="fill:#3cb371;fill-opacity:1" />
        <path
           id="path1188"
           d="m 792.48522,-244.56388 -21.02,35.52 -53.65,90.638 a 6.284,6.284 0 0 1 -0.57,-0.31 c -6.41,-3.8 -9.84,-12.6 -8.8,-25.49 l 7.58,-93.56 c 2.19,-26.96 22.77,-61.33 45.23,-74.65 20.5,-12.15 35.2,-2.53 33.18,22.37 -0.12,1.54 -0.19,3.03 -0.19,4.46 0,10.96 3.6,18.45 9.63,21.77 v 0.01 z"
           inkscape:connector-curvature="0"
           style="fill:#3cb371;fill-opacity:1" />
        <path
           id="path1190"
           d="m 792.48522,-244.56388 11.39,-19.24 v -0.01 c 6.55,3.61 15.96,2.32 26.74,-4.76 l 2.04,-1.33 c 21.63,-14.2 37.48,-4.8 35.39,20.99 -1.41,17.43 -10.65,37.88 -23.18,53.69 a 86.433,86.433 0 0 1 -19.78,18.71 l -81.25,53.3 c -10.5,6.89 -19.64,8.23 -26.02,4.81 l 53.65,-90.64 z"
           inkscape:connector-curvature="0"
           style="fill:#3cb371;fill-opacity:1" />
        <path
           id="path1192"
           d="m 1083.0672,-280.06888 c -2.952,-36.4 -30.7,-82.133 -60.582,-99.856 -14.184,-8.411 -27.28898,-9.737 -36.89998,-3.732 -10.007,6.251 -14.718,19.459 -13.284,37.193 0.149,1.848 0.225,3.645 0.225,5.339 0,11.88 -3.554,20.3 -10.017,23.715 -6.954,3.694 -17.521,1.495 -29,-6.034 l -2.621,-1.721 c -15.134,-9.928 -29.157,-12.021 -39.479,-5.893 -10.322,6.128 -15.2,19.436 -13.737,37.478 2.8,34.449 28.572,77.889 57.459,96.835 l 5.143,3.374 -41.226,145.217 h -6.281 l -42.4,-146.04 c 12.651,-16.716 21.281,-37.3 22.658,-54.316 1.173,-14.48 -2.816,-25.2 -11.233,-30.2 -8.417,-5 -19.739,-3.35 -31.87,4.613 l -2.056,1.338 c -8.656,5.688 -16.524,7.348 -21.583,4.561 -4.541,-2.5 -7.042,-8.677 -7.042,-17.391 0,-1.227 0.058,-2.558 0.174,-4.055 1.154,-14.23 -2.7,-24.87 -10.848,-29.962 -7.848,-4.9 -18.454,-3.877 -29.867,2.887 -23.505,13.947 -45.333,49.913 -47.658,78.551 l -7.575,93.562 c -1.169,14.483 2.82,25.207 11.234,30.193 l 0.113,0.067 c 0.251,0.146 0.5,0.285 0.76,0.411 a 20.867,20.867 0 0 0 9.849,2.343 c 6.413,0 13.645,-2.51 21.159,-7.441 l 81.248,-53.3 a 83.96,83.96 0 0 0 14.8,-12.669 l 39.731,136.848 h -71.794 a 5,5 0 0 0 -5,5 v 46.73 a 2.971,2.971 0 0 1 -0.795,1.977 c -0.044,0.041 -0.088,0.084 -0.132,0.127 a 65.569,65.569 0 0 0 -19.333,46.958 c 0.16,36.231 30.176,65.708 66.909,65.708 h 87.091 a 65.993,65.993 0 0 0 46.14,-113.181 2.9,2.9 0 0 1 -0.881,-2.049 v -46.27 a 5,5 0 0 0 -5,-5 h -70.124 l 39.594,-139.468 90.55398,59.408 c 9.4,6.173 18.445,9.323 26.431,9.323 a 25.66,25.66 0 0 0 11.491,-2.572 l 0.019,-0.009 c 0.569,-0.284 1.082,-0.564 1.544,-0.842 10.322,-6.12 15.2,-19.428 13.744,-37.475 z m -369.63798,136.268 7.58,-93.559 c 2.063,-25.394 22.061,-58.456 42.8,-70.753 8.035,-4.764 14.949,-5.83 19.469,-3.008 4.752,2.969 7,10.5 6.178,20.688 -0.138,1.773 -0.206,3.359 -0.206,4.848 0,10.1 2.826,18.091 8.05,23.082 l -7.671,12.961 -50.362,3.681 a 5,5 0 0 0 0.728,9.973 l 43.422,-3.174 -14.803,25.016 -39.258,2.361 a 5.0000081,5.0000081 0 1 0 0.6,9.982 l 32.511,-1.955 -45.9,77.54 c -2.627,-3.841 -3.758,-10 -3.138,-17.683 z m 108.914,-36.894 -81.251,53.3 c -5.777,3.791 -11.177,5.768 -15.572,5.791 l 45.092,-76.184 12.635,31.343 a 5.0004205,5.0004205 0 1 0 9.276,-3.738 l -15.5,-38.442 14.53,-24.549 16.46,42.254 a 5,5 0 1 0 9.318,-3.628 l -19.302,-49.558 8,-13.508 c 7.829,2.1 17.334,-0.207 27.321,-6.767 l 2.055,-1.339 c 8.651,-5.679 16.414,-7.278 21.295,-4.381 4.881,2.897 7.2,10.472 6.367,20.787 -1.283,15.857 -9.757,35.4 -22.119,50.993 a 81.693,81.693 0 0 1 -18.605,17.626 z m 156.109,193.009 a 56,56 0 0 1 -39.146,96.032 h -87.091 c -31.244,0 -56.773,-25.011 -56.909,-55.751 a 55.631,55.631 0 0 1 16.242,-39.682 c 0.074,-0.066 0.147,-0.134 0.216,-0.2 a 12.955,12.955 0 0 0 3.8,-9.132 v -41.73 h 159 v 41.27 a 12.972,12.972 0 0 0 3.888,9.193 z m 66.62498,-148.889 -104.45998,-68.531 c -26.634,-17.47 -50.4,-57.523 -52.978,-89.283 -1.121,-13.826 2.113,-24.058 8.874,-28.071 a 15.409,15.409 0 0 1 7.969,-2.007 c 5.972,0 13.212,2.606 20.921,7.662 l 2.621,1.72 c 12.815,8.407 24.934,11.264 34.711,8.325 l 11.867,20.1 -25.413,63.024 a 5,5 0 1 0 9.273,3.74 l 22.548,-55.91 20.05098,33.961 -19.99998,49.6 a 5,5 0 1 0 9.272,3.739 l 17.13398,-42.492 60.244,102.037 c -6.274,0.591 -14.085,-1.999 -22.634,-7.614 z m 31.738,3.371 -61.535,-104.226 44.985,2.707 a 5.0005072,5.0005072 0 0 0 0.6,-9.983 l -51.72,-3.112 -20.29198,-34.37 58.58098,3.525 a 5.0000081,5.0000081 0 1 0 0.6,-9.982 l -65.31498,-3.93 -11.191,-18.959 c 7.124,-6.04 11,-16.315 11,-29.591 0,-1.961 -0.086,-4.027 -0.257,-6.144 -1.107,-13.626 2.033,-23.8 8.612,-27.906 6.286,-3.925 15.69998,-2.557 26.49998,3.851 27,16.013 53.038,59.032 55.717,92.064 l 9.75,120.278 c 0.947,11.703 -1.235,20.812 -6.035,25.776 z"
           inkscape:connector-curvature="0"
           style="fill:#3cb371;fill-opacity:1" />
      </g>
      <g
         id="g1408"
         transform="matrix(0.13451048,0,0,0.21626326,198.50113,97.725334)">
        <path
           id="path1231"
           d="m -1068.179,-252.2103 v 2.76689 a 6.6035736,6.6035736 0 0 1 -6.6037,6.60357 h -53.2842 a 6.6035736,6.6035736 0 0 1 -6.6035,-6.60357 v -2.91547 h 66.4914 z"
           inkscape:connector-curvature="0"
           style="fill:#3cb371;fill-opacity:1;stroke-width:0.33017868" />
        <path
           id="path1233"
           d="m -1146.0022,-294.64487 v 36.01259 a 6.6035736,6.6035736 0 0 0 6.6036,6.60358 h 75.9477 a 6.6035736,6.6035736 0 0 0 6.6036,-6.60358 v -36.01259 z"
           inkscape:connector-curvature="0"
           style="fill:#3cb371;fill-opacity:1;stroke-width:0.33017868" />
        <path
           id="path1237"
           d="m -1118.079,-330.75321 c 1.3438,6.58707 4.6489,24.05352 4.1438,34.78763 h -16.7632 c 0.2212,-23.35684 -17.4202,-110.1212 -12.626,-97.69657 4.8041,12.44773 7.6106,8.37333 10.7539,18.17633 3.1433,9.80301 -1.3273,11.23598 1.8159,21.03899 2.6911,8.40635 6.4748,7.78891 10.2422,16.09291 a 35.71972,35.71972 0 0 1 2.4334,7.60071 z"
           inkscape:connector-curvature="0"
           style="fill:#3cb371;fill-opacity:1;stroke-width:0.33017868" />
        <path
           id="path1239"
           d="m -1088.9836,-295.96558 h -24.9516 c 0.8849,-7.68987 2.9121,-7.49175 3.7838,-15.24765 0.8783,-7.78232 -1.1622,-8.01344 -0.2872,-15.79905 0.8749,-7.78562 2.9187,-7.55449 3.7938,-15.3368 0.8749,-7.78232 -1.1623,-8.01674 -0.2841,-15.79905 0.8783,-7.78232 2.9155,-7.55449 3.7938,-15.34011 0.8783,-7.78561 -1.1655,-8.01673 -0.2873,-15.79904 0.8783,-7.78232 2.9155,-7.55779 3.7938,-15.34341 0,0 0.5679,-1.8523 0.8222,-0.0429 1.0862,7.72949 2.605,7.63704 3.1597,15.42265 0.5548,7.78561 -1.4923,7.93089 -0.9343,15.7165 0.558,7.78562 2.6018,7.63704 3.1598,15.42265 0.558,7.78561 -1.4924,7.93089 -0.9377,15.71651 0.5547,7.78561 2.6051,7.63703 3.1598,15.42264 0.5547,7.78561 -1.4924,7.93089 -0.9345,15.71651 0.5515,7.73906 2.5821,7.64001 3.15,15.29058 z"
           inkscape:connector-curvature="0"
           style="fill:#3cb371;fill-opacity:1;stroke-width:0.33017868" />
        <path
           id="path1241"
           d="m -1059.3599,-393.66215 c 4.7941,-12.42463 -12.8474,74.33973 -12.6261,97.69657 h -16.7665 c -0.5019,-10.73411 2.7999,-28.20056 4.147,-34.78763 a 35.710806,35.710806 0 0 1 2.4302,-7.60071 c 3.7706,-8.304 7.5511,-7.68656 10.2454,-16.09291 3.1433,-9.80301 -1.3273,-11.23598 1.816,-21.03899 3.1433,-9.803 5.9498,-5.7286 10.754,-18.17633 z"
           inkscape:connector-curvature="0"
           style="fill:#3cb371;fill-opacity:1;stroke-width:0.33017868" />
      </g>
      <g
         id="g1477"
         transform="matrix(0.05596553,0,0,0.05596553,43.932049,-21.652589)">
        <g
           style="fill:#3cb371;fill-opacity:1"
           transform="matrix(0.46432536,0,0,0.46432536,539.08104,818.00786)"
           id="g1136">
          <g
             style="fill:#3cb371;fill-opacity:1"
             id="g1076">
            <path
               inkscape:connector-curvature="0"
               style="fill:#3cb371;fill-opacity:1"
               d="M 188.864,67.349 C 147.819,26.325 67.499,21.568 10.667,21.568 4.776,21.568 0,26.344 0,32.235 c 0,56.853 4.757,137.173 45.781,178.219 19.261,17.154 44.438,26.143 70.208,25.067 26.571,1.047 52.57,-7.896 72.875,-25.067 30.571,-30.593 36.181,-106.923 0,-143.105 z"
               id="path1072" />
            <path
               inkscape:connector-curvature="0"
               style="fill:#3cb371;fill-opacity:1"
               d="m 459.136,63.765 c -56.853,0 -137.173,4.757 -178.219,45.781 -36.267,36.267 -30.571,112.491 0,143.083 20.311,17.174 46.318,26.117 72.896,25.067 25.769,1.074 50.946,-7.915 70.208,-25.067 41.045,-41.045 45.781,-121.365 45.781,-178.219 -0.011,-5.882 -4.783,-10.645 -10.666,-10.645 z"
               id="path1074" />
          </g>
          <path
             inkscape:connector-curvature="0"
             style="fill:#3cb371;fill-opacity:1"
             d="m 224,448.235 c -5.891,0 -10.667,-4.776 -10.667,-10.667 0,-226.24 -82.965,-283.008 -114.197,-304.363 -3.767,-2.405 -7.334,-5.109 -10.667,-8.085 -4.093,-4.237 -3.975,-10.99 0.262,-15.083 4.134,-3.993 10.687,-3.993 14.821,0 2.409,2.037 4.961,3.898 7.637,5.568 27.733,18.965 93.056,63.659 115.648,210.261 17.459,-76.645 69.213,-140.995 140.331,-174.485 5.446,-2.562 11.946,-0.51 14.933,4.715 2.698,4.755 1.032,10.796 -3.723,13.495 -0.178,0.101 -0.36,0.197 -0.544,0.287 l -1.728,0.811 c -116.949,54.976 -141.504,175.467 -141.504,266.88 0.001,5.865 -4.736,10.63 -10.602,10.666 z"
             id="path1078" />
          <g
             style="fill:#3cb371;fill-opacity:1"
             id="g1080" />
          <g
             style="fill:#3cb371;fill-opacity:1"
             id="g1082" />
          <g
             style="fill:#3cb371;fill-opacity:1"
             id="g1084" />
          <g
             style="fill:#3cb371;fill-opacity:1"
             id="g1086" />
          <g
             style="fill:#3cb371;fill-opacity:1"
             id="g1088" />
          <g
             style="fill:#3cb371;fill-opacity:1"
             id="g1090" />
          <g
             style="fill:#3cb371;fill-opacity:1"
             id="g1092" />
          <g
             style="fill:#3cb371;fill-opacity:1"
             id="g1094" />
          <g
             style="fill:#3cb371;fill-opacity:1"
             id="g1096" />
          <g
             style="fill:#3cb371;fill-opacity:1"
             id="g1098" />
          <g
             style="fill:#3cb371;fill-opacity:1"
             id="g1100" />
          <g
             style="fill:#3cb371;fill-opacity:1"
             id="g1102" />
          <g
             style="fill:#3cb371;fill-opacity:1"
             id="g1104" />
          <g
             style="fill:#3cb371;fill-opacity:1"
             id="g1106" />
          <g
             style="fill:#3cb371;fill-opacity:1"
             id="g1108" />
        </g>
        <rect
           ry="0.42180645"
           y="1009.8608"
           x="551.98877"
           height="116.98101"
           width="192.32553"
           id="rect1454"
           style="opacity:1;fill:#3cb371;fill-opacity:1;stroke:#ffffff;stroke-width:1.54187119;stroke-linecap:round;stroke-linejoin:miter;stroke-miterlimit:4;stroke-dasharray:none;stroke-dashoffset:0;stroke-opacity:1;paint-order:markers fill stroke" />
      </g>
      <path
         d="M 23.572419,46.977713 V 36.934222 c 0,-0.120058 0.49042,-0.217397 1.09532,-0.217397 h 2.59659 c 0.60489,0 1.09532,0.09734 1.09532,0.217397 v 10.043464 c 0,0.120059 -0.49043,0.217398 -1.09532,0.217398 h -2.59659 c -0.6049,0 -1.09532,-0.09731 -1.09532,-0.217371 z"
         id="path90"
         inkscape:connector-curvature="0"
         style="fill:#3cb371;fill-opacity:1;stroke-width:0.05992573" />
      <path
         d="M 85.632731,46.977713 V 36.934222 c 0,-0.120058 0.49042,-0.217397 1.09532,-0.217397 h 2.59659 c 0.60489,0 1.09532,0.09734 1.09532,0.217397 v 10.043464 c 0,0.120059 -0.49043,0.217398 -1.09532,0.217398 h -2.59659 c -0.60503,0 -1.09532,-0.09731 -1.09532,-0.217371 z"
         id="path92"
         inkscape:connector-curvature="0"
         style="fill:#3cb371;fill-opacity:1;stroke-width:0.05992573" />
      <g
         id="g1003"
         transform="translate(-148.38148,-4.1249688)">
        <path
           style="fill:#3cb371;fill-opacity:1;stroke-width:0.13451049"
           inkscape:connector-curvature="0"
           id="path96"
           d="m 171.96251,42.312739 h 66.8431 v 8.129006 h -66.8431 z" />
        <g
           transform="matrix(0.13451048,0,0,0.13451048,170.94507,-11.912202)"
           style="fill:#3cb371;fill-opacity:1"
           id="g116">
          <circle
             style="fill:#3cb371;fill-opacity:1;stroke:#ffffff;stroke-opacity:1"
             id="circle112"
             r="7.493"
             cy="433.345"
             cx="40.535" />
          <circle
             style="fill:#3cb371;fill-opacity:1;stroke:#ffffff;stroke-opacity:1"
             id="circle114"
             r="7.493"
             cy="433.345"
             cx="471.465" />
        </g>
      </g>
    </g>
    <g
       id="g1075">
      <path
         d="M 14.258743,-13.421026 V 53.510746 H 19.4424 v -66.931772 c 0,-3.599129 -2.559903,-6.730754 -6.087109,-7.446323 L 3.1083399,-22.94727 c -1.4025156,-0.286228 -2.77127091,0.621628 -3.05603075,2.024144 -0.28475984,1.403249 0.62162784,2.771271 2.02487735,3.055296 l 10.2469505,2.079922 c 1.120692,0.228248 1.934606,1.223439 1.934606,2.366882 z m 0,0"
         id="path10"
         inkscape:connector-curvature="0"
         style="fill:#3cb371;fill-opacity:1;stroke-width:0.18788278" />
      <path
         style="fill:#3cb371;fill-opacity:1;stroke-width:0.18788278"
         inkscape:connector-curvature="0"
         id="path1071"
         d="M 93.183657,-13.421026 V 53.510746 H 88 v -66.931772 c 0,-3.599129 2.559903,-6.730754 6.087109,-7.446323 l 10.246951,-2.079921 c 1.40252,-0.286228 2.77127,0.621628 3.05603,2.024144 0.28476,1.403249 -0.62163,2.771271 -2.02488,3.055296 l -10.246947,2.079922 c -1.120692,0.228248 -1.934606,1.223439 -1.934606,2.366882 z m 0,0" />
    </g>
    <path
       style="fill:#3cb371;fill-opacity:1;stroke-width:0.43668178;stroke:#ffffff;stroke-opacity:1"
       inkscape:connector-curvature="0"
       id="path12"
       d="M 94.672306,53.952564 H 12.770092 c -1.102343,0 -1.996254,-4.828925 -1.996254,-10.783809 V 31.457229 c 0,-5.954884 0.893911,-10.783809 1.996254,-10.783809 h 81.902214 c 1.102344,0 1.996255,4.828925 1.996255,10.783809 v 11.711526 c 0,5.954884 -0.893911,10.783809 -1.996255,10.783809 z m 0,0" />
  </g>
</svg>
