<?xml version="1.0" encoding="UTF-8" standalone="no"?>
<svg
   xmlns:dc="http://purl.org/dc/elements/1.1/"
   xmlns:cc="http://creativecommons.org/ns#"
   xmlns:rdf="http://www.w3.org/1999/02/22-rdf-syntax-ns#"
   xmlns:svg="http://www.w3.org/2000/svg"
   xmlns="http://www.w3.org/2000/svg"
   xmlns:sodipodi="http://sodipodi.sourceforge.net/DTD/sodipodi-0.dtd"
   xmlns:inkscape="http://www.inkscape.org/namespaces/inkscape"
   height="87.667023"
   viewBox="0 -23 107.4424 87.667023"
   width="107.4424"
   version="1.1"
   id="svg36"
   sodipodi:docname="cartemptyicon.svg"
   inkscape:version="0.92.3 (2405546, 2018-03-11)">
  <metadata
     id="metadata42">
    <rdf:RDF>
      <cc:Work
         rdf:about="">
        <dc:format>image/svg+xml</dc:format>
        <dc:type
           rdf:resource="http://purl.org/dc/dcmitype/StillImage" />
        <dc:title></dc:title>
      </cc:Work>
    </rdf:RDF>
  </metadata>
  <defs
     id="defs40" />
  <sodipodi:namedview
     pagecolor="#ffffff"
     bordercolor="#666666"
     borderopacity="1"
     objecttolerance="10"
     gridtolerance="10"
     guidetolerance="10"
     inkscape:pageopacity="0"
     inkscape:pageshadow="2"
     inkscape:window-width="1920"
     inkscape:window-height="1013"
     id="namedview38"
     showgrid="false"
     units="px"
     inkscape:zoom="5.53125"
     inkscape:cx="25.398286"
     inkscape:cy="70.694326"
     inkscape:window-x="1911"
     inkscape:window-y="-9"
     inkscape:window-maximized="1"
     inkscape:current-layer="svg36" />
  <g
     id="g1081"
     transform="translate(1.018411)">
    <path
       style="fill:#3cb371;fill-opacity:1;stroke-width:0.18788278"
       inkscape:connector-curvature="0"
       id="path14"
       d="m 34.292478,56.229175 c 0,4.660374 -3.777472,8.437846 -8.437111,8.437846 -4.65964,0 -8.437111,-3.777472 -8.437111,-8.437846 0,-4.659639 3.777471,-8.437111 8.437111,-8.437111 4.659639,0 8.437111,3.777472 8.437111,8.437111 z m 0,0" />
    <path
       style="fill:#3cb371;fill-opacity:1;stroke:#ffffff;stroke-width:0.18788278;stroke-opacity:1"
       inkscape:connector-curvature="0"
       id="path16"
       d="m 29.113224,56.229175 c 0,1.799566 -1.458291,3.257859 -3.257857,3.257859 -1.799564,0 -3.257857,-1.458293 -3.257857,-3.257859 0,-1.798831 1.458293,-3.257857 3.257857,-3.257857 1.799566,0 3.257857,1.459026 3.257857,3.257857 z m 0,0" />
    <path
       style="fill:#3cb371;fill-opacity:1;stroke-width:0.18788278"
       inkscape:connector-curvature="0"
       id="path18"
       d="m 87.987321,56.229175 c 0,4.660374 -3.777471,8.437846 -8.437111,8.437846 -4.659639,0 -8.437111,-3.777472 -8.437111,-8.437846 0,-4.659639 3.777472,-8.437111 8.437111,-8.437111 4.65964,0 8.437111,3.777472 8.437111,8.437111 z m 0,0" />
    <path
       style="fill:#3cb371;fill-opacity:1;stroke:#ffffff;stroke-width:0.18788278;stroke-opacity:1"
       inkscape:connector-curvature="0"
       id="path20"
       d="m 82.808069,56.229175 c 0,1.799566 -1.458293,3.257859 -3.257859,3.257859 -1.798831,0 -3.257857,-1.458293 -3.257857,-3.257859 0,-1.798831 1.459026,-3.257857 3.257857,-3.257857 1.799566,0 3.257859,1.459026 3.257859,3.257857 z m 0,0" />
  </g>
  <g
     id="g1075">
    <path
       style="fill:#3cb371;fill-opacity:1;stroke-width:0.18788278"
       inkscape:connector-curvature="0"
       id="path10"
       d="M 14.258743,-13.421026 V 53.510746 H 19.4424 v -66.931772 c 0,-3.599129 -2.559903,-6.730754 -6.087109,-7.446323 L 3.1083399,-22.94727 c -1.4025156,-0.286228 -2.77127091,0.621628 -3.05603075,2.024144 -0.28475984,1.403249 0.62162784,2.771271 2.02487735,3.055296 l 10.2469505,2.079922 c 1.120692,0.228248 1.934606,1.223439 1.934606,2.366882 z m 0,0" />
    <path
       d="M 93.183657,-13.421026 V 53.510746 H 88 v -66.931772 c 0,-3.599129 2.559903,-6.730754 6.087109,-7.446323 l 10.246951,-2.079921 c 1.40252,-0.286228 2.77127,0.621628 3.05603,2.024144 0.28476,1.403249 -0.62163,2.771271 -2.02488,3.055296 l -10.246947,2.079922 c -1.120692,0.228248 -1.934606,1.223439 -1.934606,2.366882 z m 0,0"
       id="path1071"
       inkscape:connector-curvature="0"
       style="fill:#3cb371;fill-opacity:1;stroke-width:0.18788278" />
  </g>
  <path
     d="M 94.672306,53.952564 H 12.770092 c -1.102343,0 -1.996254,-4.828925 -1.996254,-10.783809 V 31.457229 c 0,-5.954884 0.893911,-10.783809 1.996254,-10.783809 h 81.902214 c 1.102344,0 1.996255,4.828925 1.996255,10.783809 v 11.711526 c 0,5.954884 -0.893911,10.783809 -1.996255,10.783809 z m 0,0"
     id="path12"
     inkscape:connector-curvature="0"
     style="fill:#3cb371;fill-opacity:1;stroke:#ffffff;stroke-width:0.43668178;stroke-opacity:1" />
</svg>
