<?xml version="1.0" encoding="UTF-8" standalone="no"?>
<!-- Generator: Adobe Illustrator 19.0.0, SVG Export Plug-In . SVG Version: 6.00 Build 0)  -->

<svg
   xmlns:dc="http://purl.org/dc/elements/1.1/"
   xmlns:cc="http://creativecommons.org/ns#"
   xmlns:rdf="http://www.w3.org/1999/02/22-rdf-syntax-ns#"
   xmlns:svg="http://www.w3.org/2000/svg"
   xmlns="http://www.w3.org/2000/svg"
   xmlns:sodipodi="http://sodipodi.sourceforge.net/DTD/sodipodi-0.dtd"
   xmlns:inkscape="http://www.inkscape.org/namespaces/inkscape"
   version="1.1"
   id="Capa_1"
   x="0px"
   y="0px"
   viewBox="0 0 109.1903 95.375321"
   xml:space="preserve"
   sodipodi:docname="emailicon.svg"
   width="109.1903"
   height="95.37532"
   inkscape:version="0.92.3 (2405546, 2018-03-11)"><metadata
   id="metadata51"><rdf:RDF><cc:Work
       rdf:about=""><dc:format>image/svg+xml</dc:format><dc:type
         rdf:resource="http://purl.org/dc/dcmitype/StillImage" /></cc:Work></rdf:RDF></metadata><defs
   id="defs49">
	
</defs><sodipodi:namedview
   pagecolor="#ffffff"
   bordercolor="#666666"
   borderopacity="1"
   objecttolerance="10"
   gridtolerance="10"
   guidetolerance="10"
   inkscape:pageopacity="0"
   inkscape:pageshadow="2"
   inkscape:window-width="1920"
   inkscape:window-height="1013"
   id="namedview47"
   showgrid="false"
   inkscape:zoom="2.9368608"
   inkscape:cx="97.343829"
   inkscape:cy="10.965803"
   inkscape:window-x="1911"
   inkscape:window-y="-9"
   inkscape:window-maximized="1"
   inkscape:current-layer="Capa_1" />
<g
   style="fill:#3cb371;fill-opacity:1"
   id="g12"
   transform="matrix(0.2402038,0,0,0.2402038,0,-6.9073005)">
		<g
   style="fill:#3cb371;fill-opacity:1"
   id="g10">
			<path
   inkscape:connector-curvature="0"
   style="fill:#3cb371;fill-opacity:1"
   id="path2"
   d="M 452.441,156.234 386.612,109.736 V 41.817 c -0.66,-6.728 -5.843,-12.128 -12.539,-13.061 H 85.682 C 78.987,29.69 73.803,35.089 73.143,41.817 v 67.396 L 4.702,156.233 C 1.991,158.201 0.274,161.254 0,164.592 v 248.163 c 0.89,6.811 6.25,12.172 13.061,13.061 h 433.633 c 5.747,0 7.837,-6.792 7.837,-13.061 V 164.593 c 0,-3.135 0.522,-6.27 -2.09,-8.359 z m -65.829,-21.421 44.931,30.824 -44.931,33.959 z M 94.041,49.654 H 365.714 V 215.793 L 229.877,318.193 94.04,215.793 V 49.654 Z M 73.143,134.291 V 200.12 L 28.212,165.638 Z M 20.898,187.058 167.184,297.817 20.898,396.56 Z m 25.078,217.861 138.971,-93.518 37.094,28.212 c 2.1,1.623 4.661,2.538 7.314,2.612 2.09,0 3.135,-1.045 5.224,-2.612 l 38.661,-29.78 140.539,95.086 z M 433.633,392.903 290.482,296.772 433.633,187.058 Z" />
			<path
   inkscape:connector-curvature="0"
   style="fill:#3cb371;fill-opacity:1"
   id="path4"
   d="m 146.286,117.572 h 47.02 c 5.771,0 10.449,-4.678 10.449,-10.449 0,-5.771 -4.678,-10.449 -10.449,-10.449 h -47.02 c -5.771,0 -10.449,4.678 -10.449,10.449 0,5.771 4.678,10.449 10.449,10.449 z" />
			<path
   inkscape:connector-curvature="0"
   style="fill:#3cb371;fill-opacity:1"
   id="path6"
   d="M 146.286,164.593 H 313.47 c 5.771,0 10.449,-4.678 10.449,-10.449 0,-5.771 -4.678,-10.449 -10.449,-10.449 H 146.286 c -5.771,0 -10.449,4.678 -10.449,10.449 0,5.771 4.678,10.449 10.449,10.449 z" />
			<path
   inkscape:connector-curvature="0"
   style="fill:#3cb371;fill-opacity:1"
   id="path8"
   d="m 323.918,201.164 c 0,-5.771 -4.678,-10.449 -10.449,-10.449 H 146.286 c -5.771,0 -10.449,4.678 -10.449,10.449 0,5.771 4.678,10.449 10.449,10.449 H 313.47 c 5.77,0 10.448,-4.678 10.448,-10.449 z" />
		</g>
	</g>
<g
   id="g16"
   transform="translate(0,-28.755999)">
</g>
<g
   id="g18"
   transform="translate(0,-28.755999)">
</g>
<g
   id="g20"
   transform="translate(0,-28.755999)">
</g>
<g
   id="g22"
   transform="translate(0,-28.755999)">
</g>
<g
   id="g24"
   transform="translate(0,-28.755999)">
</g>
<g
   id="g26"
   transform="translate(0,-28.755999)">
</g>
<g
   id="g28"
   transform="translate(0,-28.755999)">
</g>
<g
   id="g30"
   transform="translate(0,-28.755999)">
</g>
<g
   id="g32"
   transform="translate(0,-28.755999)">
</g>
<g
   id="g34"
   transform="translate(0,-28.755999)">
</g>
<g
   id="g36"
   transform="translate(0,-28.755999)">
</g>
<g
   id="g38"
   transform="translate(0,-28.755999)">
</g>
<g
   id="g40"
   transform="translate(0,-28.755999)">
</g>
<g
   id="g42"
   transform="translate(0,-28.755999)">
</g>
<g
   id="g44"
   transform="translate(0,-28.755999)">
</g>
</svg>