<?xml version="1.0" encoding="UTF-8" standalone="no"?>
<!-- Generator: Adobe Illustrator 16.0.0, SVG Export Plug-In . SVG Version: 6.00 Build 0)  -->

<svg
   xmlns:dc="http://purl.org/dc/elements/1.1/"
   xmlns:cc="http://creativecommons.org/ns#"
   xmlns:rdf="http://www.w3.org/1999/02/22-rdf-syntax-ns#"
   xmlns:svg="http://www.w3.org/2000/svg"
   xmlns="http://www.w3.org/2000/svg"
   xmlns:sodipodi="http://sodipodi.sourceforge.net/DTD/sodipodi-0.dtd"
   xmlns:inkscape="http://www.inkscape.org/namespaces/inkscape"
   version="1.1"
   id="Capa_1"
   x="0px"
   y="0px"
   width="108.70441"
   height="108.7049"
   viewBox="0 0 108.7044 108.7049"
   xml:space="preserve"
   sodipodi:docname="footerinstagramicon-symbol.svg"
   inkscape:version="0.92.3 (2405546, 2018-03-11)"><metadata
   id="metadata1523"><rdf:RDF><cc:Work
       rdf:about=""><dc:format>image/svg+xml</dc:format><dc:type
         rdf:resource="http://purl.org/dc/dcmitype/StillImage" /></cc:Work></rdf:RDF></metadata><defs
   id="defs1521" /><sodipodi:namedview
   pagecolor="#ffffff"
   bordercolor="#666666"
   borderopacity="1"
   objecttolerance="10"
   gridtolerance="10"
   guidetolerance="10"
   inkscape:pageopacity="0"
   inkscape:pageshadow="2"
   inkscape:window-width="1920"
   inkscape:window-height="1003"
   id="namedview1519"
   showgrid="false"
   inkscape:zoom="1.0763084"
   inkscape:cx="321.68344"
   inkscape:cy="-53.173713"
   inkscape:window-x="-9"
   inkscape:window-y="-9"
   inkscape:window-maximized="1"
   inkscape:current-layer="Capa_1" />
<g
   id="g1486"
   style="fill:#3cb371;fill-opacity:1"
   transform="matrix(0.24788136,0,0,0.24788136,-2.4788136e-4,0)">
	<path
   d="M 421.981,16.562 C 410.941,5.519 397.711,0 382.298,0 H 56.248 C 40.83,0 27.604,5.521 16.561,16.562 5.52,27.6 0.001,40.828 0.001,56.243 V 382.29 c 0,15.413 5.518,28.644 16.56,39.683 11.043,11.04 24.272,16.563 39.687,16.563 h 326.046 c 15.41,0 28.644,-5.523 39.684,-16.563 11.043,-11.039 16.557,-24.27 16.557,-39.683 V 56.243 C 438.534,40.825 433.021,27.604 421.981,16.562 Z M 157.462,158.025 c 17.224,-16.652 37.924,-24.982 62.097,-24.982 24.36,0 45.153,8.33 62.381,24.982 17.228,16.655 25.837,36.785 25.837,60.386 0,23.598 -8.609,43.729 -25.837,60.379 -17.228,16.659 -38.014,24.988 -62.381,24.988 -24.172,0 -44.87,-8.336 -62.097,-24.988 -17.228,-16.652 -25.841,-36.781 -25.841,-60.379 0,-23.601 8.613,-43.73 25.841,-60.386 z m 231.403,212.564 c 0,4.945 -1.718,9.083 -5.141,12.416 -3.433,3.33 -7.519,4.996 -12.282,4.996 h -305.2 c -4.948,0 -9.091,-1.666 -12.419,-4.996 -3.333,-3.326 -4.998,-7.471 -4.998,-12.416 V 185.575 H 89.08 c -3.805,11.993 -5.708,24.462 -5.708,37.402 0,36.553 13.322,67.715 39.969,93.511 26.65,25.786 58.721,38.685 96.217,38.685 24.744,0 47.583,-5.903 68.527,-17.703 20.937,-11.807 37.486,-27.839 49.676,-48.112 12.183,-20.272 18.274,-42.4 18.274,-66.38 0,-12.94 -1.91,-25.406 -5.715,-37.402 h 38.547 V 370.59 h -0.002 z m 0,-254.963 c 0,5.52 -1.903,10.184 -5.716,13.99 -3.805,3.809 -8.466,5.711 -13.989,5.711 h -49.676 c -5.517,0 -10.185,-1.903 -13.99,-5.711 -3.806,-3.806 -5.708,-8.47 -5.708,-13.99 V 68.522 c 0,-5.33 1.902,-9.945 5.708,-13.848 3.806,-3.901 8.474,-5.854 13.99,-5.854 h 49.676 c 5.523,0 10.185,1.952 13.989,5.854 3.812,3.903 5.716,8.518 5.716,13.848 z"
   id="path1484"
   style="fill:#3cb371;fill-opacity:1"
   inkscape:connector-curvature="0" />
</g>
<g
   id="g1488"
   transform="translate(-0.001)">
</g>
<g
   id="g1490"
   transform="translate(-0.001)">
</g>
<g
   id="g1492"
   transform="translate(-0.001)">
</g>
<g
   id="g1494"
   transform="translate(-0.001)">
</g>
<g
   id="g1496"
   transform="translate(-0.001)">
</g>
<g
   id="g1498"
   transform="translate(-0.001)">
</g>
<g
   id="g1500"
   transform="translate(-0.001)">
</g>
<g
   id="g1502"
   transform="translate(-0.001)">
</g>
<g
   id="g1504"
   transform="translate(-0.001)">
</g>
<g
   id="g1506"
   transform="translate(-0.001)">
</g>
<g
   id="g1508"
   transform="translate(-0.001)">
</g>
<g
   id="g1510"
   transform="translate(-0.001)">
</g>
<g
   id="g1512"
   transform="translate(-0.001)">
</g>
<g
   id="g1514"
   transform="translate(-0.001)">
</g>
<g
   id="g1516"
   transform="translate(-0.001)">
</g>
</svg>