<?xml version="1.0" encoding="UTF-8" standalone="no"?>
<svg
   xmlns:dc="http://purl.org/dc/elements/1.1/"
   xmlns:cc="http://creativecommons.org/ns#"
   xmlns:rdf="http://www.w3.org/1999/02/22-rdf-syntax-ns#"
   xmlns:svg="http://www.w3.org/2000/svg"
   xmlns="http://www.w3.org/2000/svg"
   xmlns:sodipodi="http://sodipodi.sourceforge.net/DTD/sodipodi-0.dtd"
   xmlns:inkscape="http://www.inkscape.org/namespaces/inkscape"
   height="64.361588"
   viewBox="0 0 64.362198 64.361588"
   width="64.362198"
   version="1.1"
   id="svg6"
   sodipodi:docname="logout.svg"
   inkscape:version="0.92.3 (2405546, 2018-03-11)">
  <metadata
     id="metadata12">
    <rdf:RDF>
      <cc:Work
         rdf:about="">
        <dc:format>image/svg+xml</dc:format>
        <dc:type
           rdf:resource="http://purl.org/dc/dcmitype/StillImage" />
        <dc:title></dc:title>
      </cc:Work>
    </rdf:RDF>
  </metadata>
  <defs
     id="defs10" />
  <sodipodi:namedview
     pagecolor="#ffffff"
     bordercolor="#666666"
     borderopacity="1"
     objecttolerance="10"
     gridtolerance="10"
     guidetolerance="10"
     inkscape:pageopacity="0"
     inkscape:pageshadow="2"
     inkscape:window-width="1920"
     inkscape:window-height="1013"
     id="namedview8"
     showgrid="false"
     units="px"
     inkscape:zoom="2.765625"
     inkscape:cx="19.451986"
     inkscape:cy="0.41497578"
     inkscape:window-x="1911"
     inkscape:window-y="-9"
     inkscape:window-maximized="1"
     inkscape:current-layer="svg6" />
  <path
     d="m 40.22599,34.862362 c -1.482941,0 -2.681568,1.201574 -2.681568,2.681569 v 10.727258 c 0,1.477539 -1.201575,2.68157 -2.68206,2.68157 H 26.817164 V 10.726767 c 0,-2.2902098 -1.45888,-4.3363733 -3.652356,-5.0979763 L 22.370797,5.3631381 h 12.491565 c 1.480485,0 2.68206,1.20403 2.68206,2.68206 v 8.0451989 c 0,1.479993 1.198627,2.681569 2.681568,2.681569 1.482941,0 2.68157,-1.201576 2.68157,-2.681569 V 8.0451981 C 42.90756,3.6096344 39.297926,0 34.862362,0 H 6.0338986 C 5.9317623,0 5.8463213,0.04566678 5.7471313,0.05892476 5.6179877,0.04812195 5.4947369,0 5.3636291,0 2.4056047,0 0,2.4051136 0,5.3631381 V 53.634327 c 0,2.29021 1.4588797,4.336373 3.652355,5.097977 l 16.13901,5.379833 c 0.547018,0.168918 1.09109,0.249449 1.662661,0.249449 2.958024,0 5.363138,-2.405605 5.363138,-5.363629 v -2.681569 h 8.045198 c 4.435564,0 8.045198,-3.609636 8.045198,-8.045199 V 37.543931 c 0,-1.479995 -1.198629,-2.681569 -2.68157,-2.681569 z m 0,0"
     id="path2"
     inkscape:connector-curvature="0"
     style="fill:#3cb371;fill-opacity:1;stroke-width:0.12570623" />
  <path
     d="M 63.575921,24.921259 52.848663,14.194492 c -0.766513,-0.767005 -1.919967,-0.997793 -2.92267,-0.582375 -1.000248,0.415912 -1.654804,1.394554 -1.654804,2.47828 v 8.045198 H 37.544422 c -1.480486,0 -2.68206,1.201083 -2.68206,2.681569 0,1.480485 1.201574,2.681569 2.68206,2.681569 h 10.726767 v 8.045198 c 0,1.083725 0.654556,2.062368 1.654804,2.478278 1.002703,0.41542 2.156157,0.184631 2.92267,-0.581881 L 63.575921,28.713069 c 1.04837,-1.048371 1.04837,-2.74344 0,-3.79181 z m 0,0"
     id="path4"
     inkscape:connector-curvature="0"
     style="fill:#3cb371;fill-opacity:1;stroke-width:0.12570623" />
</svg>
