<?xml version="1.0" encoding="UTF-8" standalone="no"?>
<!-- Generator: Adobe Illustrator 18.1.1, SVG Export Plug-In . SVG Version: 6.00 Build 0)  -->

<svg
   xmlns:dc="http://purl.org/dc/elements/1.1/"
   xmlns:cc="http://creativecommons.org/ns#"
   xmlns:rdf="http://www.w3.org/1999/02/22-rdf-syntax-ns#"
   xmlns:svg="http://www.w3.org/2000/svg"
   xmlns="http://www.w3.org/2000/svg"
   xmlns:sodipodi="http://sodipodi.sourceforge.net/DTD/sodipodi-0.dtd"
   xmlns:inkscape="http://www.inkscape.org/namespaces/inkscape"
   version="1.1"
   id="Capa_1"
   x="0px"
   y="0px"
   viewBox="0 0 666.20755 733.46524"
   xml:space="preserve"
   sodipodi:docname="notcompletedpaymenticon.svg"
   width="666.20752"
   height="733.46521"
   inkscape:version="0.92.3 (2405546, 2018-03-11)"><metadata
   id="metadata47"><rdf:RDF><cc:Work
       rdf:about=""><dc:format>image/svg+xml</dc:format><dc:type
         rdf:resource="http://purl.org/dc/dcmitype/StillImage" /><dc:title></dc:title></cc:Work></rdf:RDF></metadata><defs
   id="defs45">
	

		
		
		
	</defs><sodipodi:namedview
   pagecolor="#ffffff"
   bordercolor="#666666"
   borderopacity="1"
   objecttolerance="10"
   gridtolerance="10"
   guidetolerance="10"
   inkscape:pageopacity="0"
   inkscape:pageshadow="2"
   inkscape:window-width="1920"
   inkscape:window-height="1013"
   id="namedview43"
   showgrid="false"
   inkscape:zoom="0.38562345"
   inkscape:cx="313.98023"
   inkscape:cy="1003.7424"
   inkscape:window-x="1911"
   inkscape:window-y="-9"
   inkscape:window-maximized="1"
   inkscape:current-layer="Capa_1" />
<g
   id="g2941"
   transform="translate(-15.559341,-33.233765)"><path
     inkscape:connector-curvature="0"
     style="fill:#3cb371;fill-opacity:1"
     id="path4"
     d="m 446.56857,203.591 c -4.378,-15.766 -20.854,-25.085 -36.615,-20.714 l -71.154,19.753 -167.742,-35.5 -18.448,87.165 -115.263997,31.992 c -15.76,4.372 -25.079,20.848 -20.708,36.609 l 64.958,234.078 c 4.378,15.76 20.854997,25.085 36.614997,20.708 l 372.608,-103.403 c 15.76,-4.378 25.079,-20.848 20.708,-36.615 l -11.15,-40.184 41.789,8.835 c 15.858,3.361 31.576,-6.87 34.931,-22.728 l 26.439,-124.937 -150.526,-31.853 z m 43.031,118.968 9.215,-43.552 c 1.384,-6.521 7.85,-10.727 14.37,-9.35 l 43.552,9.221 c 6.527,1.384 10.733,7.843 9.356,14.37 l -9.215,43.552 c -1.384,6.521 -7.849,10.733 -14.37,9.35 l -43.552,-9.215 c -6.533,-1.389 -10.74,-7.855 -9.356,-14.376 z M 43.829573,309.646 146.94457,281.04 l 243.299,-67.517 26.181,-7.274 c 0.478,-0.129 0.955,-0.19 1.421,-0.19 2.1,0 4.611,1.378 5.345,4.017 l 3.074,11.07 9.631,34.704 -383.187997,106.336 -12.705,-45.768 c -0.796,-2.872 0.956,-5.976 3.827,-6.772 z M 488.16057,444.141 c 0.49,1.776 -0.024,3.245 -0.545,4.164 -0.514,0.918 -1.506,2.119 -3.282,2.608 l -372.601,103.403 c -0.471,0.129 -0.955,0.196 -1.421,0.196 -2.1,0 -4.611,-1.384 -5.345,-4.023 L 67.078573,413.955 450.26657,307.613 l 23.371,84.208 z" /><path
     inkscape:connector-curvature="0"
     style="fill:#3cb371;fill-opacity:1"
     id="path2"
     d="m 604.18957,113.193 -374.818,-79.322 c -15.858,-3.355 -31.576,6.876 -34.931,22.734 l -7.121,45.762 432.477,91.519 7.121,-45.762 c 3.355,-15.852 -6.87,-31.575 -22.728,-34.931 z" /><path
     inkscape:connector-curvature="0"
     style="fill:#3cb371;fill-opacity:1"
     id="path6"
     d="m 171.93857,453.484 c -1.788,-6.429 -8.499,-10.225 -14.928,-8.443 l -43.515,12.08 c -6.423,1.782 -10.225,8.499 -8.437,14.928 l 12.074,43.509 c 1.788,6.429 8.499,10.225 14.928,8.437 l 43.515,-12.074 c 6.429,-1.782 10.225,-8.499 8.443,-14.928 z" /></g>
<g
   id="g12"
   transform="translate(-11.559341,-9.2337646)">
</g>
<g
   id="g14"
   transform="translate(-11.559341,-9.2337646)">
</g>
<g
   id="g16"
   transform="translate(-11.559341,-9.2337646)">
</g>
<g
   id="g18"
   transform="translate(-11.559341,-9.2337646)">
</g>
<g
   id="g20"
   transform="translate(-11.559341,-9.2337646)">
</g>
<g
   id="g22"
   transform="translate(-11.559341,-9.2337646)">
</g>
<g
   id="g24"
   transform="translate(-11.559341,-9.2337646)">
</g>
<g
   id="g26"
   transform="translate(-11.559341,-9.2337646)">
</g>
<g
   id="g28"
   transform="translate(-11.559341,-9.2337646)">
</g>
<g
   id="g30"
   transform="translate(-11.559341,-9.2337646)">
</g>
<g
   id="g32"
   transform="translate(-11.559341,-9.2337646)">
</g>
<g
   id="g34"
   transform="translate(-11.559341,-9.2337646)">
</g>
<g
   id="g36"
   transform="translate(-11.559341,-9.2337646)">
</g>
<g
   id="g38"
   transform="translate(-11.559341,-9.2337646)">
</g>
<g
   id="g40"
   transform="translate(-11.559341,-9.2337646)">
</g>
<g
   id="g2936"
   transform="matrix(0.68359375,0,0,0.68359375,315.52395,383.46521)"
   style="fill:#ff0000;fill-opacity:1"><g
     id="g2879"
     style="fill:#ff0000;fill-opacity:1">
	<g
   id="g2877"
   style="fill:#ff0000;fill-opacity:1">
		<path
   id="path2875"
   d="M 257,0 C 116.39,0 0,114.39 0,255 0,395.61 116.39,512 257,512 397.61,512 512,395.61 512,255 512,114.39 397.61,0 257,0 Z m 126.22,338.79 c 11.7,11.7 11.7,30.73 0,42.44 -11.61,11.6 -30.64,11.79 -42.44,0 L 257,297.42 171.21,381.24 c -11.7,11.7 -30.73,11.7 -42.44,0 -11.7,-11.7 -11.7,-30.73 0,-42.44 l 83.8,-83.8 -83.8,-83.8 c -11.7,-11.71 -11.7,-30.74 0,-42.44 11.71,-11.7 30.74,-11.7 42.44,0 l 85.79,83.82 83.78,-83.82 c 11.68,-11.68 30.71,-11.72 42.44,0 11.7,11.7 11.7,30.73 0,42.44 l -83.8,83.8 z"
   inkscape:connector-curvature="0"
   style="fill:#ff0000;fill-opacity:1" />
	</g>
</g><g
     id="g2881"
     style="fill:#ff0000;fill-opacity:1">
</g><g
     id="g2883"
     style="fill:#ff0000;fill-opacity:1">
</g><g
     id="g2885"
     style="fill:#ff0000;fill-opacity:1">
</g><g
     id="g2887"
     style="fill:#ff0000;fill-opacity:1">
</g><g
     id="g2889"
     style="fill:#ff0000;fill-opacity:1">
</g><g
     id="g2891"
     style="fill:#ff0000;fill-opacity:1">
</g><g
     id="g2893"
     style="fill:#ff0000;fill-opacity:1">
</g><g
     id="g2895"
     style="fill:#ff0000;fill-opacity:1">
</g><g
     id="g2897"
     style="fill:#ff0000;fill-opacity:1">
</g><g
     id="g2899"
     style="fill:#ff0000;fill-opacity:1">
</g><g
     id="g2901"
     style="fill:#ff0000;fill-opacity:1">
</g><g
     id="g2903"
     style="fill:#ff0000;fill-opacity:1">
</g><g
     id="g2905"
     style="fill:#ff0000;fill-opacity:1">
</g><g
     id="g2907"
     style="fill:#ff0000;fill-opacity:1">
</g><g
     id="g2909"
     style="fill:#ff0000;fill-opacity:1">
</g></g></svg>