<?xml version="1.0" encoding="UTF-8" standalone="no"?>
<svg
   xmlns:dc="http://purl.org/dc/elements/1.1/"
   xmlns:cc="http://creativecommons.org/ns#"
   xmlns:rdf="http://www.w3.org/1999/02/22-rdf-syntax-ns#"
   xmlns:svg="http://www.w3.org/2000/svg"
   xmlns="http://www.w3.org/2000/svg"
   xmlns:sodipodi="http://sodipodi.sourceforge.net/DTD/sodipodi-0.dtd"
   xmlns:inkscape="http://www.inkscape.org/namespaces/inkscape"
   id="Capa_1"
   enable-background="new 0 0 512 512"
   height="73.762711"
   viewBox="0 0 73.760658 73.762711"
   width="73.760658"
   version="1.1"
   sodipodi:docname="reviewsicon.svg"
   inkscape:version="0.92.3 (2405546, 2018-03-11)">
  <metadata
     id="metadata17">
    <rdf:RDF>
      <cc:Work
         rdf:about="">
        <dc:format>image/svg+xml</dc:format>
        <dc:type
           rdf:resource="http://purl.org/dc/dcmitype/StillImage" />
        <dc:title></dc:title>
      </cc:Work>
    </rdf:RDF>
  </metadata>
  <defs
     id="defs15" />
  <sodipodi:namedview
     pagecolor="#ffffff"
     bordercolor="#666666"
     borderopacity="1"
     objecttolerance="10"
     gridtolerance="10"
     guidetolerance="10"
     inkscape:pageopacity="0"
     inkscape:pageshadow="2"
     inkscape:window-width="1920"
     inkscape:window-height="1013"
     id="namedview13"
     showgrid="false"
     inkscape:zoom="2.6074563"
     inkscape:cx="-11.617331"
     inkscape:cy="-10.928422"
     inkscape:window-x="1911"
     inkscape:window-y="-9"
     inkscape:window-maximized="1"
     inkscape:current-layer="Capa_1" />
  <g
     id="g10"
     transform="matrix(0.1440678,0,0,0.1440678,-0.00100847,0)">
    <path
       d="m 503.22,186.828 -25.041,-25.041 c -11.697,-11.698 -30.729,-11.696 -42.427,0 l -52.745,52.745 V 45 c 0,-24.813 -20.187,-45 -45,-45 h -293 c -24.813,0 -45,20.187 -45,45 v 422 c 0,24.813 20.187,45 45,45 h 293 c 24.813,0 45,-20.187 45,-45 V 347.967 L 503.22,229.255 c 11.697,-11.697 11.697,-30.73 0,-42.427 z m -179.399,177.423 -45.122,21.058 21.037,-45.078 111.975,-111.975 24.757,24.756 z M 353.007,467 c 0,8.271 -6.729,15 -15,15 h -293 c -8.271,0 -15,-6.729 -15,-15 V 45 c 0,-8.271 6.729,-15 15,-15 h 293 c 8.271,0 15,6.729 15,15 v 199.532 c -83.179,83.179 -77.747,77.203 -79.34,80.616 l -39.598,84.854 c -2.667,5.717 -1.474,12.49 2.986,16.95 4.46,4.461 11.236,5.653 16.95,2.986 l 84.854,-39.599 c 3.111,-1.452 3.623,-2.354 14.148,-12.748 z m 104.806,-235.067 -24.89,-24.89 24.043,-24.043 25.033,25.049 z"
       id="path2"
       inkscape:connector-curvature="0" />
    <path
       d="m 80.007,127 h 224 c 8.284,0 15,-6.716 15,-15 0,-8.284 -6.716,-15 -15,-15 h -224 c -8.284,0 -15,6.716 -15,15 0,8.284 6.716,15 15,15 z"
       id="path4"
       inkscape:connector-curvature="0" />
    <path
       d="m 80.007,207 h 176 c 8.284,0 15,-6.716 15,-15 0,-8.284 -6.716,-15 -15,-15 h -176 c -8.284,0 -15,6.716 -15,15 0,8.284 6.716,15 15,15 z"
       id="path6"
       inkscape:connector-curvature="0" />
    <path
       d="m 208.007,257 h -128 c -8.284,0 -15,6.716 -15,15 0,8.284 6.716,15 15,15 h 128 c 8.284,0 15,-6.716 15,-15 0,-8.284 -6.716,-15 -15,-15 z"
       id="path8"
       inkscape:connector-curvature="0" />
  </g>
</svg>
