<?xml version="1.0" encoding="UTF-8" standalone="no"?>
<svg
   xmlns:dc="http://purl.org/dc/elements/1.1/"
   xmlns:cc="http://creativecommons.org/ns#"
   xmlns:rdf="http://www.w3.org/1999/02/22-rdf-syntax-ns#"
   xmlns:svg="http://www.w3.org/2000/svg"
   xmlns="http://www.w3.org/2000/svg"
   xmlns:sodipodi="http://sodipodi.sourceforge.net/DTD/sodipodi-0.dtd"
   xmlns:inkscape="http://www.inkscape.org/namespaces/inkscape"
   width="29.999998"
   height="30"
   viewBox="0 0 29.999998 30"
   version="1.1"
   id="svg4"
   sodipodi:docname="searchicon.svg"
   inkscape:version="0.92.3 (2405546, 2018-03-11)">
  <metadata
     id="metadata10">
    <rdf:RDF>
      <cc:Work
         rdf:about="">
        <dc:format>image/svg+xml</dc:format>
        <dc:type
           rdf:resource="http://purl.org/dc/dcmitype/StillImage" />
        <dc:title></dc:title>
      </cc:Work>
    </rdf:RDF>
  </metadata>
  <defs
     id="defs8" />
  <sodipodi:namedview
     pagecolor="#ffffff"
     bordercolor="#666666"
     borderopacity="1"
     objecttolerance="10"
     gridtolerance="10"
     guidetolerance="10"
     inkscape:pageopacity="0"
     inkscape:pageshadow="2"
     inkscape:window-width="1920"
     inkscape:window-height="1013"
     id="namedview6"
     showgrid="false"
     inkscape:zoom="7.375"
     inkscape:cx="-18.552056"
     inkscape:cy="-4.6511849"
     inkscape:window-x="1911"
     inkscape:window-y="-9"
     inkscape:window-maximized="1"
     inkscape:current-layer="svg4" />
  <path
     d="M 13.007249,0.037164 C 5.8346836,0.037164 0,5.871845 0,13.044414 c 0,7.172571 5.8346836,13.007252 13.007249,13.007252 2.192651,0 4.34814,-0.52029 6.169155,-1.523709 a 3.7163574,3.7163573 0 0 0 0.483126,0.483127 l 3.716356,3.71636 a 3.7906844,3.7906843 0 1 0 5.351557,-5.351557 L 25.011084,19.65953 a 3.7163574,3.7163573 0 0 0 -0.594616,-0.483125 c 1.003416,-1.821016 1.635197,-3.939337 1.635197,-6.169153 C 26.051665,5.834683 20.216985,0 13.044414,0 Z m 0,3.716357 c 5.165739,0 9.290896,4.125158 9.290896,9.290893 0,2.452796 -0.891925,4.719775 -2.452795,6.392136 -0.03715,0.03715 -0.07432,0.07432 -0.111494,0.111494 a 3.7163574,3.7163573 0 0 0 -0.483125,0.483129 c -1.635197,1.486539 -3.86501,2.341302 -6.280644,2.341302 -5.1657358,0 -9.2908951,-4.125155 -9.2908951,-9.290893 0,-5.165736 4.1251593,-9.290891 9.2908951,-9.290891 z"
     id="path2"
     style="fill:#3cb371;fill-opacity:1;stroke-width:3.71635723"
     inkscape:connector-curvature="0" />
</svg>
