<?xml version="1.0" encoding="UTF-8" standalone="no"?>
<!-- Generator: Adobe Illustrator 19.0.0, SVG Export Plug-In . SVG Version: 6.00 Build 0)  -->

<svg
   xmlns:dc="http://purl.org/dc/elements/1.1/"
   xmlns:cc="http://creativecommons.org/ns#"
   xmlns:rdf="http://www.w3.org/1999/02/22-rdf-syntax-ns#"
   xmlns:svg="http://www.w3.org/2000/svg"
   xmlns="http://www.w3.org/2000/svg"
   xmlns:sodipodi="http://sodipodi.sourceforge.net/DTD/sodipodi-0.dtd"
   xmlns:inkscape="http://www.inkscape.org/namespaces/inkscape"
   version="1.1"
   id="Layer_1"
   x="0px"
   y="0px"
   viewBox="0 0 109.17629 109.17608"
   xml:space="preserve"
   sodipodi:docname="fullshade.svg"
   inkscape:version="0.92.3 (2405546, 2018-03-11)"
   width="109.17629"
   height="109.17608"><metadata
   id="metadata61"><rdf:RDF><cc:Work
       rdf:about=""><dc:format>image/svg+xml</dc:format><dc:type
         rdf:resource="http://purl.org/dc/dcmitype/StillImage" /><dc:title></dc:title></cc:Work></rdf:RDF></metadata><defs
   id="defs59">
	

		
	
			
			
			
			
			
			
			
			
			
		</defs><sodipodi:namedview
   pagecolor="#ffffff"
   bordercolor="#666666"
   borderopacity="1"
   objecttolerance="10"
   gridtolerance="10"
   guidetolerance="10"
   inkscape:pageopacity="0"
   inkscape:pageshadow="2"
   inkscape:window-width="1920"
   inkscape:window-height="1003"
   id="namedview57"
   showgrid="false"
   inkscape:snap-bbox="true"
   inkscape:snap-bbox-edge-midpoints="true"
   inkscape:snap-center="true"
   inkscape:snap-object-midpoints="true"
   showguides="true"
   inkscape:guide-bbox="true"
   inkscape:zoom="3.6875"
   inkscape:cx="47.854461"
   inkscape:cy="49.044229"
   inkscape:window-x="-9"
   inkscape:window-y="-9"
   inkscape:window-maximized="1"
   inkscape:current-layer="Layer_1" />
<g
   id="g1593"
   transform="scale(0.21323495)"><path
     d="m 256,83.708 c 9.024,0 16.34,-7.316 16.34,-16.34 V 16.34 C 272.34,7.316 265.024,0 256,0 246.976,0 239.66,7.316 239.66,16.34 v 51.027 c 0,9.024 7.316,16.341 16.34,16.341 z"
     id="path4"
     inkscape:connector-curvature="0" /><path
     d="m 256,428.292 c -9.024,0 -16.34,7.316 -16.34,16.34 v 51.027 c 0,9.024 7.316,16.34 16.34,16.34 9.024,0 16.34,-7.316 16.34,-16.34 v -51.027 c 0,-9.023 -7.316,-16.34 -16.34,-16.34 z"
     id="path6"
     inkscape:connector-curvature="0" /><path
     d="m 111.062,134.171 c 6.38,6.381 16.727,6.381 23.109,0 6.381,-6.38 6.381,-16.727 0,-23.109 L 98.089,74.981 c -6.38,-6.381 -16.727,-6.381 -23.109,0 -6.381,6.38 -6.381,16.727 0,23.109 z"
     id="path8"
     inkscape:connector-curvature="0" /><path
     d="m 400.938,377.829 c -6.38,-6.381 -16.727,-6.38 -23.109,0 -6.381,6.38 -6.381,16.727 0,23.109 l 36.081,36.082 c 6.38,6.382 16.727,6.382 23.109,0 6.382,-6.38 6.382,-16.727 0,-23.109 z"
     id="path10"
     inkscape:connector-curvature="0" /><path
     d="m 83.708,256 c 0,-9.024 -7.316,-16.34 -16.34,-16.34 H 16.34 C 7.316,239.66 0,246.976 0,256 c 0,9.024 7.316,16.34 16.34,16.34 h 51.027 c 9.024,0 16.341,-7.316 16.341,-16.34 z"
     id="path12"
     inkscape:connector-curvature="0" /><path
     d="m 495.66,239.66 h -51.027 c -9.024,0 -16.34,7.316 -16.34,16.34 0,9.024 7.316,16.34 16.34,16.34 h 51.027 c 9.024,0 16.34,-7.316 16.34,-16.34 0,-9.024 -7.316,-16.34 -16.34,-16.34 z"
     id="path14"
     inkscape:connector-curvature="0" /><path
     d="m 111.062,377.829 -36.081,36.082 c -6.381,6.382 -6.381,16.727 0,23.109 6.38,6.382 16.727,6.383 23.109,0 l 36.081,-36.082 c 6.381,-6.381 6.381,-16.727 0,-23.109 -6.381,-6.382 -16.728,-6.382 -23.109,0 z"
     id="path16"
     inkscape:connector-curvature="0" /><path
     d="m 400.938,134.171 36.081,-36.082 c 6.382,-6.381 6.382,-16.727 0,-23.109 -6.38,-6.381 -16.727,-6.381 -23.109,0 l -36.081,36.082 c -6.381,6.381 -6.381,16.727 0,23.109 6.381,6.381 16.728,6.382 23.109,0 z"
     id="path18"
     inkscape:connector-curvature="0" /></g>
<g
   id="g26"
   transform="translate(-3.5573735,4.4175163)">
</g>
<g
   id="g28"
   transform="translate(-3.5573735,4.4175163)">
</g>
<g
   id="g30"
   transform="translate(-3.5573735,4.4175163)">
</g>
<g
   id="g32"
   transform="translate(-3.5573735,4.4175163)">
</g>
<g
   id="g34"
   transform="translate(-3.5573735,4.4175163)">
</g>
<g
   id="g36"
   transform="translate(-3.5573735,4.4175163)">
</g>
<g
   id="g38"
   transform="translate(-3.5573735,4.4175163)">
</g>
<g
   id="g40"
   transform="translate(-3.5573735,4.4175163)">
</g>
<g
   id="g42"
   transform="translate(-3.5573735,4.4175163)">
</g>
<g
   id="g44"
   transform="translate(-3.5573735,4.4175163)">
</g>
<g
   id="g46"
   transform="translate(-3.5573735,4.4175163)">
</g>
<g
   id="g48"
   transform="translate(-3.5573735,4.4175163)">
</g>
<g
   id="g50"
   transform="translate(-3.5573735,4.4175163)">
</g>
<g
   id="g52"
   transform="translate(-3.5573735,4.4175163)">
</g>
<g
   id="g54"
   transform="translate(-3.5573735,4.4175163)">
</g>
<circle
   r="33.288425"
   cy="-54.588146"
   cx="54.588039"
   style="opacity:1;fill:#000000;fill-opacity:1;stroke:none;stroke-width:0.07865666;stroke-linecap:round;stroke-linejoin:miter;stroke-miterlimit:4;stroke-dasharray:none;stroke-dashoffset:0;stroke-opacity:0.99607843;paint-order:markers fill stroke"
   id="circle1537"
   transform="rotate(90)" /></svg>