<?xml version="1.0" encoding="UTF-8" standalone="no"?>
<!-- Generator: Adobe Illustrator 19.0.0, SVG Export Plug-In . SVG Version: 6.00 Build 0)  -->

<svg
   xmlns:dc="http://purl.org/dc/elements/1.1/"
   xmlns:cc="http://creativecommons.org/ns#"
   xmlns:rdf="http://www.w3.org/1999/02/22-rdf-syntax-ns#"
   xmlns:svg="http://www.w3.org/2000/svg"
   xmlns="http://www.w3.org/2000/svg"
   xmlns:sodipodi="http://sodipodi.sourceforge.net/DTD/sodipodi-0.dtd"
   xmlns:inkscape="http://www.inkscape.org/namespaces/inkscape"
   version="1.1"
   id="Layer_1"
   x="0px"
   y="0px"
   viewBox="0 0 109.55816 109.55785"
   xml:space="preserve"
   sodipodi:docname="halfshade.svg"
   inkscape:version="0.92.3 (2405546, 2018-03-11)"
   width="109.55816"
   height="109.55785"><metadata
   id="metadata61"><rdf:RDF><cc:Work
       rdf:about=""><dc:format>image/svg+xml</dc:format><dc:type
         rdf:resource="http://purl.org/dc/dcmitype/StillImage" /><dc:title /></cc:Work></rdf:RDF></metadata><defs
   id="defs59">
	

		
	
			
			
			
			
			
			
			
			
			
		</defs><sodipodi:namedview
   pagecolor="#ffffff"
   bordercolor="#666666"
   borderopacity="1"
   objecttolerance="10"
   gridtolerance="10"
   guidetolerance="10"
   inkscape:pageopacity="0"
   inkscape:pageshadow="2"
   inkscape:window-width="1920"
   inkscape:window-height="1003"
   id="namedview57"
   showgrid="false"
   inkscape:snap-bbox="true"
   inkscape:snap-bbox-edge-midpoints="true"
   inkscape:snap-center="true"
   inkscape:snap-object-midpoints="true"
   showguides="true"
   inkscape:guide-bbox="true"
   inkscape:zoom="3.6875001"
   inkscape:cx="15.155228"
   inkscape:cy="28.201321"
   inkscape:window-x="-9"
   inkscape:window-y="-9"
   inkscape:window-maximized="1"
   inkscape:current-layer="Layer_1" />

<g
   id="g26"
   transform="translate(724.61017,-1533.831)">
</g>
<g
   id="g28"
   transform="translate(724.61017,-1533.831)">
</g>
<g
   id="g30"
   transform="translate(724.61017,-1533.831)">
</g>
<g
   id="g32"
   transform="translate(724.61017,-1533.831)">
</g>
<g
   id="g34"
   transform="translate(724.61017,-1533.831)">
</g>
<g
   id="g36"
   transform="translate(724.61017,-1533.831)">
</g>
<g
   id="g38"
   transform="translate(724.61017,-1533.831)">
</g>
<g
   id="g40"
   transform="translate(724.61017,-1533.831)">
</g>
<g
   id="g42"
   transform="translate(724.61017,-1533.831)">
</g>
<g
   id="g44"
   transform="translate(724.61017,-1533.831)">
</g>
<g
   id="g46"
   transform="translate(724.61017,-1533.831)">
</g>
<g
   id="g48"
   transform="translate(724.61017,-1533.831)">
</g>
<g
   id="g50"
   transform="translate(724.61017,-1533.831)">
</g>
<g
   id="g52"
   transform="translate(724.61017,-1533.831)">
</g>
<g
   id="g54"
   transform="translate(724.61017,-1533.831)">
</g>
<g
   id="g878"
   transform="matrix(0.2139808,0,0,0.2139808,0,-1.069904e-6)"><g
     transform="translate(949.32789,-92.842175)"
     id="g1547"><path
       style="opacity:1;fill:#ffa500;fill-opacity:1;stroke:none;stroke-width:0.36887321;stroke-linecap:round;stroke-linejoin:miter;stroke-miterlimit:4;stroke-dasharray:none;stroke-dashoffset:0;stroke-opacity:0.99607843;paint-order:markers fill stroke"
       id="path1533"
       sodipodi:type="arc"
       sodipodi:cx="348.8414"
       sodipodi:cy="696.25403"
       sodipodi:rx="156.11148"
       sodipodi:ry="156.11148"
       sodipodi:start="6.2628173"
       sodipodi:end="3.1603375"
       sodipodi:open="true"
       d="M 504.9205,693.07457 A 156.11148,156.11148 0 0 1 427.88608,830.87473 156.11148,156.11148 0 0 1 270.01534,831.00286 156.11148,156.11148 0 0 1 192.75735,693.32791"
       transform="rotate(90)" /><path
       transform="matrix(0,1,1,0,0,0)"
       d="m 504.9205,-693.58125 a 156.11148,156.11148 0 0 1 -77.03442,137.80016 156.11148,156.11148 0 0 1 -157.87074,0.12812 156.11148,156.11148 0 0 1 -77.25799,-137.67494"
       sodipodi:open="true"
       sodipodi:end="3.1603375"
       sodipodi:start="6.2628173"
       sodipodi:ry="156.11148"
       sodipodi:rx="156.11148"
       sodipodi:cy="-690.40179"
       sodipodi:cx="348.8414"
       sodipodi:type="arc"
       id="path1539"
       style="opacity:1;fill:#000000;fill-opacity:1;stroke:none;stroke-width:0.36887321;stroke-linecap:round;stroke-linejoin:miter;stroke-miterlimit:4;stroke-dasharray:none;stroke-dashoffset:0;stroke-opacity:0.99607843;paint-order:markers fill stroke" /></g><g
     transform="translate(221.28814,-885.153)"
     id="g1654"><path
       inkscape:connector-curvature="0"
       id="path1573"
       d="m -110.22614,1019.3235 c 6.37996,6.381 16.726963,6.381 23.108963,0 6.381,-6.38 6.381,-16.727 0,-23.10896 l -36.081963,-36.081 c -6.38,-6.381 -16.727,-6.381 -23.109,0 -6.381,6.38 -6.381,16.727 0,23.109 z"
       style="fill:#ffa500;fill-opacity:1" /><path
       inkscape:connector-curvature="0"
       id="path1575"
       d="m 179.64982,1262.9815 c -6.38,-6.381 -16.727,-6.38 -23.109,0 -6.381,6.38 -6.381,16.727 0,23.109 l 36.081,36.082 c 6.38,6.382 16.727,6.382 23.109,0 6.382,-6.38 6.382,-16.727 0,-23.109 z" /><path
       inkscape:connector-curvature="0"
       id="path1577"
       d="m -137.58014,1141.1525 c 0,-9.024 -7.316,-16.34 -16.34,-16.34 h -51.028 c -9.024,0 -16.34,7.316 -16.34,16.34 0,9.024 7.316,16.34 16.34,16.34 h 51.027 c 9.024,0 16.341,-7.316 16.341,-16.34 z"
       style="fill:#ffa500;fill-opacity:1" /><path
       inkscape:connector-curvature="0"
       id="path1579"
       d="m 274.37182,1124.8125 h -51.027 c -9.024,0 -16.34,7.316 -16.34,16.34 0,9.024 7.316,16.34 16.34,16.34 h 51.027 c 9.024,0 16.34,-7.316 16.34,-16.34 0,-9.024 -7.316,-16.34 -16.34,-16.34 z" /><path
       inkscape:connector-curvature="0"
       id="path1581"
       d="m -110.22614,1262.9815 -36.081,36.082 c -6.381,6.382 -6.381,16.727 0,23.109 6.38,6.382 16.727,6.383 23.109,0 l 36.080963,-36.082 c 6.381,-6.381 6.381,-16.727 0,-23.109 -6.381,-6.382 -16.728003,-6.382 -23.108963,0 z"
       style="fill:#ffa500;fill-opacity:1" /><path
       inkscape:connector-curvature="0"
       id="path1583"
       d="m 179.64982,1019.3235 36.081,-36.08196 c 6.382,-6.381 6.382,-16.727 0,-23.109 -6.38,-6.381 -16.727,-6.381 -23.109,0 l -36.081,36.082 c -6.381,6.38096 -6.381,16.72696 0,23.10896 6.381,6.381 16.728,6.382 23.109,0 z" /><g
       id="g1634"
       transform="translate(416.5419,-34.712225)"><path
         style="fill:#ffa500;fill-opacity:1"
         id="path1630"
         d="m -381.83008,919.86523 c -9.024,0 -16.33984,7.31585 -16.33984,16.33985 v 51.02539 c 0,9.024 7.31584,16.34183 16.33984,16.34183 z"
         inkscape:connector-curvature="0" /><path
         id="path1613"
         d="m -381.83008,919.86523 v 83.70707 c 9.024,0 16.33985,-7.31588 16.33985,-16.33988 v -51.02734 c 0,-9.024 -7.31585,-16.33985 -16.33985,-16.33985 z"
         inkscape:connector-curvature="0" /></g><g
       transform="translate(416.5419,393.57923)"
       id="g1640"><path
         inkscape:connector-curvature="0"
         d="m -381.83008,919.86523 c -9.024,0 -16.33984,7.31585 -16.33984,16.33985 v 51.02539 c 0,9.024 7.31584,16.34183 16.33984,16.34183 z"
         id="path1636"
         style="fill:#ffa500;fill-opacity:1" /><path
         inkscape:connector-curvature="0"
         d="m -381.83008,919.86523 v 83.70707 c 9.024,0 16.33985,-7.31588 16.33985,-16.33988 v -51.02734 c 0,-9.024 -7.31585,-16.33985 -16.33985,-16.33985 z"
         id="path1638" /></g></g></g></svg>